<svg width="742" height="146" viewBox="0 0 742 146" fill="none" xmlns="http://www.w3.org/2000/svg">
<path d="M9.595 63C6.84167 63 4.74167 62.4283 3.295 61.285C1.84833 60.165 0.996667 58.3917 0.74 55.965C0.67 55.3583 0.798334 54.88 1.125 54.53C1.45167 54.18 1.90667 54.005 2.49 54.005C3.07333 54.005 3.51667 54.1567 3.82 54.46C4.12333 54.7633 4.32167 55.2183 4.415 55.825C4.57833 57.1783 5.05667 58.1 5.85 58.59C6.64333 59.08 7.89167 59.325 9.595 59.325H22.615C24.6683 59.325 26.0567 58.9517 26.78 58.205C27.5267 57.4583 27.9 56.0583 27.9 54.005V43.995C26.8267 45.6283 25.31 46.8767 23.35 47.74C21.39 48.58 18.905 49 15.895 49H13.235C8.87167 49 5.675 47.9967 3.645 45.99C1.615 43.96 0.6 40.775 0.6 36.435V28.525C0.6 24.115 1.60333 20.9183 3.61 18.935C5.64 16.9283 8.84833 15.925 13.235 15.925H18.975C21.2617 15.925 23.1167 16.2283 24.54 16.835C25.9633 17.4417 27.0833 18.3867 27.9 19.67V17.745C27.9 16.5317 28.5183 15.925 29.755 15.925C30.9683 15.925 31.575 16.5317 31.575 17.745V54.005C31.575 57.085 30.8517 59.3483 29.405 60.795C27.9583 62.265 25.695 63 22.615 63H9.595ZM13.235 45.325H15.895C19.535 45.325 22.44 44.7533 24.61 43.61C26.8033 42.4667 27.9 40.7283 27.9 38.395V26.705C27.9 24.0683 27.165 22.225 25.695 21.175C24.225 20.125 21.985 19.6 18.975 19.6H13.235C9.89833 19.6 7.565 20.2533 6.235 21.56C4.92833 22.8433 4.275 25.165 4.275 28.525V36.435C4.275 39.725 4.92833 42.035 6.235 43.365C7.565 44.6717 9.89833 45.325 13.235 45.325ZM46.7945 33.88V36.435C46.7945 39.725 47.4479 42.035 48.7545 43.365C50.0845 44.6717 52.4179 45.325 55.7545 45.325H61.4945C64.4345 45.325 66.5695 44.9517 67.8995 44.205C69.2529 43.435 70.0579 42.1167 70.3145 40.25C70.4079 39.6667 70.5945 39.2233 70.8745 38.92C71.1779 38.6167 71.6329 38.465 72.2395 38.465C72.8462 38.465 73.3012 38.64 73.6045 38.99C73.9312 39.3167 74.0595 39.7833 73.9895 40.39C73.6862 43.33 72.5079 45.5 70.4545 46.9C68.4012 48.3 65.4145 49 61.4945 49H55.7545C51.3912 49 48.1945 47.9967 46.1645 45.99C44.1345 43.96 43.1195 40.775 43.1195 36.435V28.525C43.1195 24.115 44.1345 20.9067 46.1645 18.9C48.1945 16.87 51.3912 15.8783 55.7545 15.925H61.4945C65.8579 15.925 69.0429 16.94 71.0495 18.97C73.0795 20.9767 74.0945 24.1617 74.0945 28.525V32.025C74.0945 33.2617 73.4879 33.88 72.2745 33.88H46.7945ZM55.7545 19.6C52.4179 19.5533 50.0845 20.195 48.7545 21.525C47.4479 22.8317 46.7945 25.165 46.7945 28.525V30.205H70.4195V28.525C70.4195 25.1883 69.7662 22.8667 68.4595 21.56C67.1529 20.2533 64.8312 19.6 61.4945 19.6H55.7545ZM98.3851 49C94.0917 49 90.9534 48.0083 88.9701 46.025C86.9867 44.0417 85.9951 40.915 85.9951 36.645V19.6H81.8301C80.5934 19.6 79.9751 18.9817 79.9751 17.745C79.9751 16.5317 80.5934 15.925 81.8301 15.925H85.9951V8.4C85.9951 7.16333 86.6017 6.545 87.8151 6.545C89.0517 6.545 89.6701 7.16333 89.6701 8.4V15.925H98.4551C99.6684 15.925 100.275 16.5317 100.275 17.745C100.275 18.9817 99.6684 19.6 98.4551 19.6H89.6701V36.645C89.6701 39.9117 90.3001 42.175 91.5601 43.435C92.8434 44.695 95.1184 45.325 98.3851 45.325C99.0617 45.325 99.5401 45.4767 99.8201 45.78C100.123 46.0833 100.275 46.5383 100.275 47.145C100.275 48.3817 99.6451 49 98.3851 49ZM129.386 63C128.15 63 127.531 62.3817 127.531 61.145V17.745C127.531 16.5317 128.15 15.925 129.386 15.925C130.6 15.925 131.206 16.5317 131.206 17.745V20.86C132.256 19.2267 133.761 18.0017 135.721 17.185C137.681 16.345 140.19 15.925 143.246 15.925H145.906C150.27 15.925 153.455 16.94 155.461 18.97C157.491 20.9767 158.506 24.1617 158.506 28.525V36.365C158.506 40.7283 157.491 43.925 155.461 45.955C153.455 47.985 150.27 49 145.906 49H131.206V61.145C131.206 62.3817 130.6 63 129.386 63ZM131.206 45.325H145.906C149.243 45.325 151.565 44.6717 152.871 43.365C154.178 42.035 154.831 39.7017 154.831 36.365V28.525C154.831 25.1883 154.178 22.8667 152.871 21.56C151.565 20.2533 149.243 19.6 145.906 19.6H143.246C139.513 19.6 136.643 20.1833 134.636 21.35C132.653 22.5167 131.51 24.3133 131.206 26.74V45.325ZM180.501 49C176.861 49 174.189 48.16 172.486 46.48C170.806 44.7767 169.966 42.105 169.966 38.465C169.966 34.825 170.818 32.1533 172.521 30.45C174.224 28.7467 176.884 27.895 180.501 27.895H196.426C196.379 24.815 195.679 22.6683 194.326 21.455C192.996 20.2183 190.721 19.6 187.501 19.6H183.441C180.478 19.6 178.308 19.915 176.931 20.545C175.554 21.175 174.703 22.2483 174.376 23.765C174.213 24.3483 173.991 24.78 173.711 25.06C173.454 25.3167 173.034 25.445 172.451 25.445C171.844 25.445 171.366 25.2817 171.016 24.955C170.689 24.605 170.573 24.1383 170.666 23.555C170.969 20.895 172.171 18.9583 174.271 17.745C176.394 16.5317 179.451 15.925 183.441 15.925H187.501C191.864 15.925 195.049 16.94 197.056 18.97C199.086 20.9767 200.101 24.1617 200.101 28.525V47.145C200.101 48.3817 199.494 49 198.281 49C197.044 49 196.426 48.3817 196.426 47.145V43.68C194.186 47.2267 190.184 49 184.421 49H180.501ZM180.501 45.325H184.421C186.684 45.325 188.668 45.08 190.371 44.59C192.098 44.0767 193.486 43.26 194.536 42.14C195.586 41.02 196.216 39.5267 196.426 37.66V31.57H180.501C177.911 31.57 176.114 32.0717 175.111 33.075C174.131 34.055 173.641 35.8517 173.641 38.465C173.641 41.055 174.131 42.8517 175.111 43.855C176.114 44.835 177.911 45.325 180.501 45.325ZM213.62 9.555C212.01 9.555 211.205 8.72666 211.205 7.07V5.495C211.205 3.885 212.01 3.08 213.62 3.08H215.195C216.759 3.08 217.54 3.885 217.54 5.495V7.07C217.54 8.72666 216.759 9.555 215.195 9.555H213.62ZM214.425 49C213.189 49 212.57 48.3817 212.57 47.145V17.745C212.57 16.5317 213.189 15.925 214.425 15.925C215.639 15.925 216.245 16.5317 216.245 17.745V47.145C216.245 48.3817 215.639 49 214.425 49ZM241.008 49C236.645 49 233.448 47.985 231.418 45.955C229.388 43.925 228.373 40.7283 228.373 36.365V28.525C228.373 24.1617 229.388 20.9767 231.418 18.97C233.448 16.94 236.645 15.925 241.008 15.925H255.673V2.275C255.673 1.06166 256.292 0.454997 257.528 0.454997C258.742 0.454997 259.348 1.06166 259.348 2.275V47.145C259.348 48.3817 258.742 49 257.528 49C256.292 49 255.673 48.3817 255.673 47.145V44.135C254.67 45.745 253.2 46.9583 251.263 47.775C249.327 48.5917 246.795 49 243.668 49H241.008ZM241.008 45.325H243.668C247.308 45.325 250.213 44.7533 252.383 43.61C254.577 42.4433 255.673 40.705 255.673 38.395V19.6H241.008C237.672 19.6 235.338 20.265 234.008 21.595C232.702 22.9017 232.048 25.2117 232.048 28.525V36.365C232.048 39.7017 232.702 42.035 234.008 43.365C235.338 44.6717 237.672 45.325 241.008 45.325ZM291.856 49C290.62 49 290.001 48.3817 290.001 47.145V19.6H287.061C285.825 19.6 285.206 18.9817 285.206 17.745C285.206 16.5317 285.825 15.925 287.061 15.925H290.001V12.845C290.001 8.55167 290.993 5.41333 292.976 3.43C294.983 1.44666 298.133 0.454997 302.426 0.454997C303.616 0.454997 304.211 1.06166 304.211 2.275C304.211 3.51166 303.616 4.13 302.426 4.13C299.16 4.13 296.885 4.77166 295.601 6.055C294.318 7.315 293.676 9.57833 293.676 12.845V15.925H302.356C303.593 15.925 304.211 16.5317 304.211 17.745C304.211 18.9817 303.593 19.6 302.356 19.6H293.676V47.145C293.676 48.3817 293.07 49 291.856 49ZM321.946 49C317.583 49 314.386 47.9967 312.356 45.99C310.326 43.96 309.311 40.775 309.311 36.435V28.525C309.311 24.115 310.326 20.9067 312.356 18.9C314.386 16.87 317.583 15.8783 321.946 15.925H327.686C332.049 15.925 335.234 16.94 337.241 18.97C339.271 20.9767 340.286 24.1617 340.286 28.525V36.365C340.286 40.7283 339.271 43.925 337.241 45.955C335.234 47.985 332.049 49 327.686 49H321.946ZM312.986 36.435C312.986 39.725 313.639 42.035 314.946 43.365C316.276 44.6717 318.609 45.325 321.946 45.325H327.686C331.023 45.325 333.344 44.6717 334.651 43.365C335.958 42.035 336.611 39.7017 336.611 36.365V28.525C336.611 25.1883 335.958 22.8667 334.651 21.56C333.344 20.2533 331.023 19.6 327.686 19.6H321.946C319.706 19.5767 317.933 19.845 316.626 20.405C315.319 20.965 314.386 21.8983 313.826 23.205C313.266 24.5117 312.986 26.285 312.986 28.525V36.435ZM354.289 49C353.052 49 352.434 48.3817 352.434 47.145V17.745C352.434 16.5317 353.052 15.925 354.289 15.925C355.502 15.925 356.109 16.5317 356.109 17.745V23.135C357.322 20.8017 359.072 19.0167 361.359 17.78C363.669 16.5433 366.399 15.925 369.549 15.925C370.785 15.925 371.404 16.5317 371.404 17.745C371.404 18.9817 370.785 19.6 369.549 19.6C365.395 19.6 362.175 20.545 359.889 22.435C357.602 24.3017 356.342 26.9733 356.109 30.45V47.145C356.109 48.3817 355.502 49 354.289 49ZM406.049 48.93C402.082 48.93 399.084 48.09 397.054 46.41C395.024 44.7067 393.869 42.035 393.589 38.395C393.542 37.7883 393.682 37.3217 394.009 36.995C394.335 36.645 394.802 36.47 395.409 36.47C396.552 36.47 397.17 37.0767 397.264 38.29C397.497 40.88 398.267 42.6883 399.574 43.715C400.904 44.7417 403.062 45.255 406.049 45.255H414.029C417.365 45.255 419.675 44.6133 420.959 43.33C422.265 42.0233 422.919 39.7367 422.919 36.47C422.919 33.18 422.265 30.8933 420.959 29.61C419.675 28.3033 417.365 27.65 414.029 27.65H407.554C406.317 27.65 405.699 27.0433 405.699 25.83C405.699 24.5933 406.317 23.975 407.554 23.975H414.974C417.564 23.9517 419.349 23.2633 420.329 21.91C421.309 20.5333 421.799 18.48 421.799 15.75C421.799 12.6933 421.204 10.57 420.014 9.38C418.824 8.16667 416.689 7.56 413.609 7.56H406.819C404.112 7.56 402.14 8.02667 400.904 8.96C399.69 9.89333 398.979 11.5267 398.769 13.86C398.629 15.0733 397.999 15.68 396.879 15.68C396.272 15.68 395.805 15.5167 395.479 15.19C395.152 14.84 395.024 14.3617 395.094 13.755C395.35 10.3717 396.435 7.88666 398.349 6.3C400.262 4.69 403.085 3.885 406.819 3.885H413.609C417.692 3.885 420.69 4.84167 422.604 6.755C424.517 8.66833 425.474 11.6667 425.474 15.75C425.474 20.44 423.782 23.6483 420.399 25.375C422.545 26.285 424.109 27.6617 425.089 29.505C426.092 31.325 426.594 33.6467 426.594 36.47C426.594 40.7633 425.59 43.9133 423.584 45.92C421.577 47.9267 418.392 48.93 414.029 48.93H406.049ZM449.505 49C445.141 49 441.945 47.985 439.915 45.955C437.885 43.925 436.87 40.7283 436.87 36.365V28.525C436.87 24.1617 437.885 20.9767 439.915 18.97C441.945 16.94 445.141 15.925 449.505 15.925H464.17V2.275C464.17 1.06166 464.788 0.454997 466.025 0.454997C467.238 0.454997 467.845 1.06166 467.845 2.275V47.145C467.845 48.3817 467.238 49 466.025 49C464.788 49 464.17 48.3817 464.17 47.145V44.135C463.166 45.745 461.696 46.9583 459.76 47.775C457.823 48.5917 455.291 49 452.165 49H449.505ZM449.505 45.325H452.165C455.805 45.325 458.71 44.7533 460.88 43.61C463.073 42.4433 464.17 40.705 464.17 38.395V19.6H449.505C446.168 19.6 443.835 20.265 442.505 21.595C441.198 22.9017 440.545 25.2117 440.545 28.525V36.365C440.545 39.7017 441.198 42.035 442.505 43.365C443.835 44.6717 446.168 45.325 449.505 45.325ZM499.757 63C498.521 63 497.902 62.3817 497.902 61.145V17.745C497.902 16.5317 498.521 15.925 499.757 15.925C500.971 15.925 501.577 16.5317 501.577 17.745V20.86C502.627 19.2267 504.132 18.0017 506.092 17.185C508.052 16.345 510.561 15.925 513.617 15.925H516.277C520.641 15.925 523.826 16.94 525.832 18.97C527.862 20.9767 528.877 24.1617 528.877 28.525V36.365C528.877 40.7283 527.862 43.925 525.832 45.955C523.826 47.985 520.641 49 516.277 49H501.577V61.145C501.577 62.3817 500.971 63 499.757 63ZM501.577 45.325H516.277C519.614 45.325 521.936 44.6717 523.242 43.365C524.549 42.035 525.202 39.7017 525.202 36.365V28.525C525.202 25.1883 524.549 22.8667 523.242 21.56C521.936 20.2533 519.614 19.6 516.277 19.6H513.617C509.884 19.6 507.014 20.1833 505.007 21.35C503.024 22.5167 501.881 24.3133 501.577 26.74V45.325ZM542.892 49C541.656 49 541.037 48.3817 541.037 47.145V17.745C541.037 16.5317 541.656 15.925 542.892 15.925C544.106 15.925 544.712 16.5317 544.712 17.745V23.135C545.926 20.8017 547.676 19.0167 549.962 17.78C552.272 16.5433 555.002 15.925 558.152 15.925C559.389 15.925 560.007 16.5317 560.007 17.745C560.007 18.9817 559.389 19.6 558.152 19.6C553.999 19.6 550.779 20.545 548.492 22.435C546.206 24.3017 544.946 26.9733 544.712 30.45V47.145C544.712 48.3817 544.106 49 542.892 49ZM568.474 9.555C566.864 9.555 566.059 8.72666 566.059 7.07V5.495C566.059 3.885 566.864 3.08 568.474 3.08H570.049C571.612 3.08 572.394 3.885 572.394 5.495V7.07C572.394 8.72666 571.612 9.555 570.049 9.555H568.474ZM569.279 49C568.042 49 567.424 48.3817 567.424 47.145V17.745C567.424 16.5317 568.042 15.925 569.279 15.925C570.492 15.925 571.099 16.5317 571.099 17.745V47.145C571.099 48.3817 570.492 49 569.279 49ZM586.027 49C584.79 49 584.172 48.3817 584.172 47.145V17.745C584.172 16.5317 584.79 15.925 586.027 15.925C587.24 15.925 587.847 16.5317 587.847 17.745V21.105C590.064 17.6517 594.077 15.925 599.887 15.925H601.847C606.21 15.925 609.395 16.94 611.402 18.97C613.432 20.9767 614.447 24.1617 614.447 28.525V47.145C614.447 48.3817 613.84 49 612.627 49C611.39 49 610.772 48.3817 610.772 47.145V28.525C610.772 25.1883 610.107 22.8667 608.777 21.56C607.47 20.2533 605.16 19.6 601.847 19.6H599.887C596.27 19.6 593.424 20.1717 591.347 21.315C589.27 22.4583 588.104 24.2433 587.847 26.67V47.145C587.847 48.3817 587.24 49 586.027 49ZM640.407 49C636.113 49 632.975 48.0083 630.992 46.025C629.008 44.0417 628.017 40.915 628.017 36.645V19.6H623.852C622.615 19.6 621.997 18.9817 621.997 17.745C621.997 16.5317 622.615 15.925 623.852 15.925H628.017V8.4C628.017 7.16333 628.623 6.545 629.837 6.545C631.073 6.545 631.692 7.16333 631.692 8.4V15.925H640.477C641.69 15.925 642.297 16.5317 642.297 17.745C642.297 18.9817 641.69 19.6 640.477 19.6H631.692V36.645C631.692 39.9117 632.322 42.175 633.582 43.435C634.865 44.695 637.14 45.325 640.407 45.325C641.083 45.325 641.562 45.4767 641.842 45.78C642.145 46.0833 642.297 46.5383 642.297 47.145C642.297 48.3817 641.667 49 640.407 49ZM653.034 9.555C651.424 9.555 650.619 8.72666 650.619 7.07V5.495C650.619 3.885 651.424 3.08 653.034 3.08H654.609C656.173 3.08 656.954 3.885 656.954 5.495V7.07C656.954 8.72666 656.173 9.555 654.609 9.555H653.034ZM653.839 49C652.603 49 651.984 48.3817 651.984 47.145V17.745C651.984 16.5317 652.603 15.925 653.839 15.925C655.053 15.925 655.659 16.5317 655.659 17.745V47.145C655.659 48.3817 655.053 49 653.839 49ZM670.588 49C669.351 49 668.733 48.3817 668.733 47.145V17.745C668.733 16.5317 669.351 15.925 670.588 15.925C671.801 15.925 672.408 16.5317 672.408 17.745V21.105C674.624 17.6517 678.638 15.925 684.448 15.925H686.408C690.771 15.925 693.956 16.94 695.963 18.97C697.993 20.9767 699.008 24.1617 699.008 28.525V47.145C699.008 48.3817 698.401 49 697.188 49C695.951 49 695.333 48.3817 695.333 47.145V28.525C695.333 25.1883 694.668 22.8667 693.338 21.56C692.031 20.2533 689.721 19.6 686.408 19.6H684.448C680.831 19.6 677.984 20.1717 675.908 21.315C673.831 22.4583 672.664 24.2433 672.408 26.67V47.145C672.408 48.3817 671.801 49 670.588 49ZM719.507 63C716.754 63 714.654 62.4283 713.207 61.285C711.76 60.165 710.909 58.3917 710.652 55.965C710.582 55.3583 710.71 54.88 711.037 54.53C711.364 54.18 711.819 54.005 712.402 54.005C712.985 54.005 713.429 54.1567 713.732 54.46C714.035 54.7633 714.234 55.2183 714.327 55.825C714.49 57.1783 714.969 58.1 715.762 58.59C716.555 59.08 717.804 59.325 719.507 59.325H732.527C734.58 59.325 735.969 58.9517 736.692 58.205C737.439 57.4583 737.812 56.0583 737.812 54.005V43.995C736.739 45.6283 735.222 46.8767 733.262 47.74C731.302 48.58 728.817 49 725.807 49H723.147C718.784 49 715.587 47.9967 713.557 45.99C711.527 43.96 710.512 40.775 710.512 36.435V28.525C710.512 24.115 711.515 20.9183 713.522 18.935C715.552 16.9283 718.76 15.925 723.147 15.925H728.887C731.174 15.925 733.029 16.2283 734.452 16.835C735.875 17.4417 736.995 18.3867 737.812 19.67V17.745C737.812 16.5317 738.43 15.925 739.667 15.925C740.88 15.925 741.487 16.5317 741.487 17.745V54.005C741.487 57.085 740.764 59.3483 739.317 60.795C737.87 62.265 735.607 63 732.527 63H719.507ZM723.147 45.325H725.807C729.447 45.325 732.352 44.7533 734.522 43.61C736.715 42.4667 737.812 40.7283 737.812 38.395V26.705C737.812 24.0683 737.077 22.225 735.607 21.175C734.137 20.125 731.897 19.6 728.887 19.6H723.147C719.81 19.6 717.477 20.2533 716.147 21.56C714.84 22.8433 714.187 25.165 714.187 28.525V36.435C714.187 39.725 714.84 42.035 716.147 43.365C717.477 44.6717 719.81 45.325 723.147 45.325ZM9.595 146C6.84167 146 4.74167 145.428 3.295 144.285C1.84833 143.165 0.996667 141.392 0.74 138.965C0.67 138.358 0.798334 137.88 1.125 137.53C1.45167 137.18 1.90667 137.005 2.49 137.005C3.07333 137.005 3.51667 137.157 3.82 137.46C4.12333 137.763 4.32167 138.218 4.415 138.825C4.57833 140.178 5.05667 141.1 5.85 141.59C6.64333 142.08 7.89167 142.325 9.595 142.325H22.615C24.6683 142.325 26.0567 141.952 26.78 141.205C27.5267 140.458 27.9 139.058 27.9 137.005V126.995C26.8267 128.628 25.31 129.877 23.35 130.74C21.39 131.58 18.905 132 15.895 132H13.235C8.87167 132 5.675 130.997 3.645 128.99C1.615 126.96 0.6 123.775 0.6 119.435V111.525C0.6 107.115 1.60333 103.918 3.61 101.935C5.64 99.9283 8.84833 98.925 13.235 98.925H18.975C21.2617 98.925 23.1167 99.2283 24.54 99.835C25.9633 100.442 27.0833 101.387 27.9 102.67V100.745C27.9 99.5317 28.5183 98.925 29.755 98.925C30.9683 98.925 31.575 99.5317 31.575 100.745V137.005C31.575 140.085 30.8517 142.348 29.405 143.795C27.9583 145.265 25.695 146 22.615 146H9.595ZM13.235 128.325H15.895C19.535 128.325 22.44 127.753 24.61 126.61C26.8033 125.467 27.9 123.728 27.9 121.395V109.705C27.9 107.068 27.165 105.225 25.695 104.175C24.225 103.125 21.985 102.6 18.975 102.6H13.235C9.89833 102.6 7.565 103.253 6.235 104.56C4.92833 105.843 4.275 108.165 4.275 111.525V119.435C4.275 122.725 4.92833 125.035 6.235 126.365C7.565 127.672 9.89833 128.325 13.235 128.325ZM46.7945 116.88V119.435C46.7945 122.725 47.4479 125.035 48.7545 126.365C50.0845 127.672 52.4179 128.325 55.7545 128.325H61.4945C64.4345 128.325 66.5695 127.952 67.8995 127.205C69.2529 126.435 70.0579 125.117 70.3145 123.25C70.4079 122.667 70.5945 122.223 70.8745 121.92C71.1779 121.617 71.6329 121.465 72.2395 121.465C72.8462 121.465 73.3012 121.64 73.6045 121.99C73.9312 122.317 74.0595 122.783 73.9895 123.39C73.6862 126.33 72.5079 128.5 70.4545 129.9C68.4012 131.3 65.4145 132 61.4945 132H55.7545C51.3912 132 48.1945 130.997 46.1645 128.99C44.1345 126.96 43.1195 123.775 43.1195 119.435V111.525C43.1195 107.115 44.1345 103.907 46.1645 101.9C48.1945 99.87 51.3912 98.8783 55.7545 98.925H61.4945C65.8579 98.925 69.0429 99.94 71.0495 101.97C73.0795 103.977 74.0945 107.162 74.0945 111.525V115.025C74.0945 116.262 73.4879 116.88 72.2745 116.88H46.7945ZM55.7545 102.6C52.4179 102.553 50.0845 103.195 48.7545 104.525C47.4479 105.832 46.7945 108.165 46.7945 111.525V113.205H70.4195V111.525C70.4195 108.188 69.7662 105.867 68.4595 104.56C67.1529 103.253 64.8312 102.6 61.4945 102.6H55.7545ZM98.3851 132C94.0917 132 90.9534 131.008 88.9701 129.025C86.9867 127.042 85.9951 123.915 85.9951 119.645V102.6H81.8301C80.5934 102.6 79.9751 101.982 79.9751 100.745C79.9751 99.5317 80.5934 98.925 81.8301 98.925H85.9951V91.4C85.9951 90.1633 86.6017 89.545 87.8151 89.545C89.0517 89.545 89.6701 90.1633 89.6701 91.4V98.925H98.4551C99.6684 98.925 100.275 99.5317 100.275 100.745C100.275 101.982 99.6684 102.6 98.4551 102.6H89.6701V119.645C89.6701 122.912 90.3001 125.175 91.5601 126.435C92.8434 127.695 95.1184 128.325 98.3851 128.325C99.0617 128.325 99.5401 128.477 99.8201 128.78C100.123 129.083 100.275 129.538 100.275 130.145C100.275 131.382 99.6451 132 98.3851 132ZM135.861 146C132.805 146 130.541 145.265 129.071 143.795C127.625 142.325 126.901 140.038 126.901 136.935C126.901 135.722 127.508 135.115 128.721 135.115C129.958 135.115 130.576 135.722 130.576 136.935C130.576 139.035 130.95 140.458 131.696 141.205C132.443 141.952 133.831 142.325 135.861 142.325H147.971C150.025 142.325 151.425 141.952 152.171 141.205C152.918 140.458 153.291 139.035 153.291 136.935V127.31C151.961 129.06 150.293 130.285 148.286 130.985C146.28 131.685 143.935 132.035 141.251 132.035H139.291C134.998 132.035 131.86 131.043 129.876 129.06C127.893 127.077 126.901 123.962 126.901 119.715V100.71C126.901 99.4733 127.508 98.855 128.721 98.855C129.958 98.855 130.576 99.4733 130.576 100.71V119.715C130.576 122.958 131.206 125.21 132.466 126.47C133.75 127.73 136.025 128.36 139.291 128.36H141.251C145.335 128.36 148.356 127.648 150.316 126.225C152.3 124.778 153.291 122.608 153.291 119.715V100.71C153.291 99.4733 153.898 98.855 155.111 98.855C156.348 98.855 156.966 99.4733 156.966 100.71V136.935C156.966 140.038 156.231 142.325 154.761 143.795C153.315 145.265 151.051 146 147.971 146H135.861ZM181.741 132C177.378 132 174.181 130.997 172.151 128.99C170.121 126.96 169.106 123.775 169.106 119.435V111.525C169.106 107.115 170.121 103.907 172.151 101.9C174.181 99.87 177.378 98.8783 181.741 98.925H187.481C191.844 98.925 195.029 99.94 197.036 101.97C199.066 103.977 200.081 107.162 200.081 111.525V119.365C200.081 123.728 199.066 126.925 197.036 128.955C195.029 130.985 191.844 132 187.481 132H181.741ZM172.781 119.435C172.781 122.725 173.434 125.035 174.741 126.365C176.071 127.672 178.404 128.325 181.741 128.325H187.481C190.818 128.325 193.139 127.672 194.446 126.365C195.753 125.035 196.406 122.702 196.406 119.365V111.525C196.406 108.188 195.753 105.867 194.446 104.56C193.139 103.253 190.818 102.6 187.481 102.6H181.741C179.501 102.577 177.728 102.845 176.421 103.405C175.114 103.965 174.181 104.898 173.621 106.205C173.061 107.512 172.781 109.285 172.781 111.525V119.435ZM240.019 98.925C241.255 98.925 241.874 99.5317 241.874 100.745V130.145C241.874 131.382 241.255 132 240.019 132C238.805 132 238.199 131.382 238.199 130.145V126.82C235.982 130.273 231.969 132 226.159 132H224.199C219.835 132 216.639 130.985 214.609 128.955C212.602 126.925 211.599 123.728 211.599 119.365V100.745C211.599 99.5317 212.205 98.925 213.419 98.925C214.655 98.925 215.274 99.5317 215.274 100.745V119.365C215.274 122.702 215.927 125.035 217.234 126.365C218.564 127.672 220.885 128.325 224.199 128.325H226.159C229.775 128.325 232.622 127.742 234.699 126.575C236.775 125.408 237.942 123.623 238.199 121.22V100.745C238.199 99.5317 238.805 98.925 240.019 98.925ZM256.808 132C255.572 132 254.953 131.382 254.953 130.145V100.745C254.953 99.5317 255.572 98.925 256.808 98.925C258.022 98.925 258.628 99.5317 258.628 100.745V106.135C259.842 103.802 261.592 102.017 263.878 100.78C266.188 99.5433 268.918 98.925 272.068 98.925C273.305 98.925 273.923 99.5317 273.923 100.745C273.923 101.982 273.305 102.6 272.068 102.6C267.915 102.6 264.695 103.545 262.408 105.435C260.122 107.302 258.862 109.973 258.628 113.45V130.145C258.628 131.382 258.022 132 256.808 132ZM300.763 146C299.527 146 298.908 145.382 298.908 144.145V100.745C298.908 99.5317 299.527 98.925 300.763 98.925C301.977 98.925 302.583 99.5317 302.583 100.745V103.86C303.633 102.227 305.138 101.002 307.098 100.185C309.058 99.345 311.567 98.925 314.623 98.925H317.283C321.647 98.925 324.832 99.94 326.838 101.97C328.868 103.977 329.883 107.162 329.883 111.525V119.365C329.883 123.728 328.868 126.925 326.838 128.955C324.832 130.985 321.647 132 317.283 132H302.583V144.145C302.583 145.382 301.977 146 300.763 146ZM302.583 128.325H317.283C320.62 128.325 322.942 127.672 324.248 126.365C325.555 125.035 326.208 122.702 326.208 119.365V111.525C326.208 108.188 325.555 105.867 324.248 104.56C322.942 103.253 320.62 102.6 317.283 102.6H314.623C310.89 102.6 308.02 103.183 306.013 104.35C304.03 105.517 302.887 107.313 302.583 109.74V128.325ZM343.898 132C342.661 132 342.043 131.382 342.043 130.145V100.745C342.043 99.5317 342.661 98.925 343.898 98.925C345.111 98.925 345.718 99.5317 345.718 100.745V106.135C346.931 103.802 348.681 102.017 350.968 100.78C353.278 99.5433 356.008 98.925 359.158 98.925C360.395 98.925 361.013 99.5317 361.013 100.745C361.013 101.982 360.395 102.6 359.158 102.6C355.005 102.6 351.785 103.545 349.498 105.435C347.211 107.302 345.951 109.973 345.718 113.45V130.145C345.718 131.382 345.111 132 343.898 132ZM369.48 92.555C367.87 92.555 367.065 91.7267 367.065 90.07V88.495C367.065 86.885 367.87 86.08 369.48 86.08H371.055C372.618 86.08 373.4 86.885 373.4 88.495V90.07C373.4 91.7267 372.618 92.555 371.055 92.555H369.48ZM370.285 132C369.048 132 368.43 131.382 368.43 130.145V100.745C368.43 99.5317 369.048 98.925 370.285 98.925C371.498 98.925 372.105 99.5317 372.105 100.745V130.145C372.105 131.382 371.498 132 370.285 132ZM387.033 132C385.796 132 385.178 131.382 385.178 130.145V100.745C385.178 99.5317 385.796 98.925 387.033 98.925C388.246 98.925 388.853 99.5317 388.853 100.745V104.105C391.069 100.652 395.083 98.925 400.893 98.925H402.853C407.216 98.925 410.401 99.94 412.408 101.97C414.438 103.977 415.453 107.162 415.453 111.525V130.145C415.453 131.382 414.846 132 413.633 132C412.396 132 411.778 131.382 411.778 130.145V111.525C411.778 108.188 411.113 105.867 409.783 104.56C408.476 103.253 406.166 102.6 402.853 102.6H400.893C397.276 102.6 394.429 103.172 392.353 104.315C390.276 105.458 389.109 107.243 388.853 109.67V130.145C388.853 131.382 388.246 132 387.033 132ZM441.412 132C437.119 132 433.981 131.008 431.997 129.025C430.014 127.042 429.022 123.915 429.022 119.645V102.6H424.857C423.621 102.6 423.002 101.982 423.002 100.745C423.002 99.5317 423.621 98.925 424.857 98.925H429.022V91.4C429.022 90.1633 429.629 89.545 430.842 89.545C432.079 89.545 432.697 90.1633 432.697 91.4V98.925H441.482C442.696 98.925 443.302 99.5317 443.302 100.745C443.302 101.982 442.696 102.6 441.482 102.6H432.697V119.645C432.697 122.912 433.327 125.175 434.587 126.435C435.871 127.695 438.146 128.325 441.412 128.325C442.089 128.325 442.567 128.477 442.847 128.78C443.151 129.083 443.302 129.538 443.302 130.145C443.302 131.382 442.672 132 441.412 132ZM454.04 92.555C452.43 92.555 451.625 91.7267 451.625 90.07V88.495C451.625 86.885 452.43 86.08 454.04 86.08H455.615C457.179 86.08 457.96 86.885 457.96 88.495V90.07C457.96 91.7267 457.179 92.555 455.615 92.555H454.04ZM454.845 132C453.609 132 452.99 131.382 452.99 130.145V100.745C452.99 99.5317 453.609 98.925 454.845 98.925C456.059 98.925 456.665 99.5317 456.665 100.745V130.145C456.665 131.382 456.059 132 454.845 132ZM471.593 132C470.357 132 469.738 131.382 469.738 130.145V100.745C469.738 99.5317 470.357 98.925 471.593 98.925C472.807 98.925 473.413 99.5317 473.413 100.745V104.105C475.63 100.652 479.643 98.925 485.453 98.925H487.413C491.777 98.925 494.962 99.94 496.968 101.97C498.998 103.977 500.013 107.162 500.013 111.525V130.145C500.013 131.382 499.407 132 498.193 132C496.957 132 496.338 131.382 496.338 130.145V111.525C496.338 108.188 495.673 105.867 494.343 104.56C493.037 103.253 490.727 102.6 487.413 102.6H485.453C481.837 102.6 478.99 103.172 476.913 104.315C474.837 105.458 473.67 107.243 473.413 109.67V130.145C473.413 131.382 472.807 132 471.593 132ZM520.513 146C517.76 146 515.66 145.428 514.213 144.285C512.766 143.165 511.915 141.392 511.658 138.965C511.588 138.358 511.716 137.88 512.043 137.53C512.37 137.18 512.825 137.005 513.408 137.005C513.991 137.005 514.435 137.157 514.738 137.46C515.041 137.763 515.24 138.218 515.333 138.825C515.496 140.178 515.975 141.1 516.768 141.59C517.561 142.08 518.81 142.325 520.513 142.325H533.533C535.586 142.325 536.975 141.952 537.698 141.205C538.445 140.458 538.818 139.058 538.818 137.005V126.995C537.745 128.628 536.228 129.877 534.268 130.74C532.308 131.58 529.823 132 526.813 132H524.153C519.79 132 516.593 130.997 514.563 128.99C512.533 126.96 511.518 123.775 511.518 119.435V111.525C511.518 107.115 512.521 103.918 514.528 101.935C516.558 99.9283 519.766 98.925 524.153 98.925H529.893C532.18 98.925 534.035 99.2283 535.458 99.835C536.881 100.442 538.001 101.387 538.818 102.67V100.745C538.818 99.5317 539.436 98.925 540.673 98.925C541.886 98.925 542.493 99.5317 542.493 100.745V137.005C542.493 140.085 541.77 142.348 540.323 143.795C538.876 145.265 536.613 146 533.533 146H520.513ZM524.153 128.325H526.813C530.453 128.325 533.358 127.753 535.528 126.61C537.721 125.467 538.818 123.728 538.818 121.395V109.705C538.818 107.068 538.083 105.225 536.613 104.175C535.143 103.125 532.903 102.6 529.893 102.6H524.153C520.816 102.6 518.483 103.253 517.153 104.56C515.846 105.843 515.193 108.165 515.193 111.525V119.435C515.193 122.725 515.846 125.035 517.153 126.365C518.483 127.672 520.816 128.325 524.153 128.325ZM584.241 132C579.878 132 576.681 130.985 574.651 128.955C572.621 126.925 571.606 123.728 571.606 119.365V111.525C571.606 107.162 572.621 103.977 574.651 101.97C576.681 99.94 579.878 98.925 584.241 98.925H598.906V85.275C598.906 84.0617 599.524 83.455 600.761 83.455C601.974 83.455 602.581 84.0617 602.581 85.275V130.145C602.581 131.382 601.974 132 600.761 132C599.524 132 598.906 131.382 598.906 130.145V127.135C597.903 128.745 596.433 129.958 594.496 130.775C592.559 131.592 590.028 132 586.901 132H584.241ZM584.241 128.325H586.901C590.541 128.325 593.446 127.753 595.616 126.61C597.809 125.443 598.906 123.705 598.906 121.395V102.6H584.241C580.904 102.6 578.571 103.265 577.241 104.595C575.934 105.902 575.281 108.212 575.281 111.525V119.365C575.281 122.702 575.934 125.035 577.241 126.365C578.571 127.672 580.904 128.325 584.241 128.325ZM626.76 132C622.397 132 619.2 130.997 617.17 128.99C615.14 126.96 614.125 123.775 614.125 119.435V111.525C614.125 107.115 615.14 103.907 617.17 101.9C619.2 99.87 622.397 98.8783 626.76 98.925H632.5C636.864 98.925 640.049 99.94 642.055 101.97C644.085 103.977 645.1 107.162 645.1 111.525V119.365C645.1 123.728 644.085 126.925 642.055 128.955C640.049 130.985 636.864 132 632.5 132H626.76ZM617.8 119.435C617.8 122.725 618.454 125.035 619.76 126.365C621.09 127.672 623.424 128.325 626.76 128.325H632.5C635.837 128.325 638.159 127.672 639.465 126.365C640.772 125.035 641.425 122.702 641.425 119.365V111.525C641.425 108.188 640.772 105.867 639.465 104.56C638.159 103.253 635.837 102.6 632.5 102.6H626.76C624.52 102.577 622.747 102.845 621.44 103.405C620.134 103.965 619.2 104.898 618.64 106.205C618.08 107.512 617.8 109.285 617.8 111.525V119.435ZM659.103 132C657.866 132 657.248 131.382 657.248 130.145V100.745C657.248 99.5317 657.866 98.925 659.103 98.925C660.316 98.925 660.923 99.5317 660.923 100.745V104.105C663.14 100.652 667.153 98.925 672.963 98.925H674.923C679.286 98.925 682.471 99.94 684.478 101.97C686.508 103.977 687.523 107.162 687.523 111.525V130.145C687.523 131.382 686.916 132 685.703 132C684.466 132 683.848 131.382 683.848 130.145V111.525C683.848 108.188 683.183 105.867 681.853 104.56C680.546 103.253 678.236 102.6 674.923 102.6H672.963C669.346 102.6 666.5 103.172 664.423 104.315C662.346 105.458 661.18 107.243 660.923 109.67V130.145C660.923 131.382 660.316 132 659.103 132ZM702.703 116.88V119.435C702.703 122.725 703.356 125.035 704.663 126.365C705.993 127.672 708.326 128.325 711.663 128.325H717.403C720.343 128.325 722.478 127.952 723.808 127.205C725.161 126.435 725.966 125.117 726.223 123.25C726.316 122.667 726.503 122.223 726.783 121.92C727.086 121.617 727.541 121.465 728.148 121.465C728.754 121.465 729.209 121.64 729.513 121.99C729.839 122.317 729.968 122.783 729.898 123.39C729.594 126.33 728.416 128.5 726.363 129.9C724.309 131.3 721.323 132 717.403 132H711.663C707.299 132 704.103 130.997 702.073 128.99C700.043 126.96 699.028 123.775 699.028 119.435V111.525C699.028 107.115 700.043 103.907 702.073 101.9C704.103 99.87 707.299 98.8783 711.663 98.925H717.403C721.766 98.925 724.951 99.94 726.958 101.97C728.988 103.977 730.003 107.162 730.003 111.525V115.025C730.003 116.262 729.396 116.88 728.183 116.88H702.703ZM711.663 102.6C708.326 102.553 705.993 103.195 704.663 104.525C703.356 105.832 702.703 108.165 702.703 111.525V113.205H726.328V111.525C726.328 108.188 725.674 105.867 724.368 104.56C723.061 103.253 720.739 102.6 717.403 102.6H711.663Z" fill="white"/>
</svg>
