<svg width="199" height="38" viewBox="0 0 199 38" fill="none" xmlns="http://www.w3.org/2000/svg">
<g filter="url(#filter0_d_36_2)">
<path d="M22.615 3.5V19.95L4.73 2.275V28H8.79V11.55L26.675 29.225V3.5H22.615ZM30.5679 19.95C30.5679 21.5833 30.9413 23.0417 31.6879 24.325C32.4579 25.585 33.4963 26.5767 34.8029 27.3C36.1096 28 37.5913 28.35 39.2479 28.35C40.9046 28.35 42.3746 28 43.6579 27.3C44.9646 26.5767 46.0029 25.585 46.7729 24.325C47.5429 23.0417 47.9279 21.5833 47.9279 19.95C47.9279 18.2933 47.5429 16.835 46.7729 15.575C46.0029 14.315 44.9646 13.335 43.6579 12.635C42.3746 11.9117 40.9046 11.55 39.2479 11.55C37.5913 11.55 36.1096 11.9117 34.8029 12.635C33.4963 13.335 32.4579 14.315 31.6879 15.575C30.9413 16.835 30.5679 18.2933 30.5679 19.95ZM34.4529 19.95C34.4529 18.9467 34.6629 18.06 35.0829 17.29C35.5029 16.52 36.0746 15.925 36.7979 15.505C37.5213 15.085 38.3379 14.875 39.2479 14.875C40.1346 14.875 40.9396 15.085 41.6629 15.505C42.4096 15.925 42.9929 16.52 43.4129 17.29C43.8329 18.06 44.0429 18.9467 44.0429 19.95C44.0429 20.9533 43.8329 21.84 43.4129 22.61C42.9929 23.3567 42.4096 23.9517 41.6629 24.395C40.9396 24.815 40.1346 25.025 39.2479 25.025C38.3379 25.025 37.5213 24.815 36.7979 24.395C36.0746 23.9517 35.5029 23.3567 35.0829 22.61C34.6629 21.84 34.4529 20.9533 34.4529 19.95ZM49.2746 11.9V15.225H58.4096V11.9H49.2746ZM51.9696 6.3V28H55.7146V6.3H51.9696ZM60.8766 5.495C60.8766 6.125 61.1099 6.67333 61.5766 7.14C62.0666 7.58333 62.6266 7.805 63.2566 7.805C63.9332 7.805 64.4932 7.58333 64.9366 7.14C65.4032 6.67333 65.6366 6.125 65.6366 5.495C65.6366 4.84167 65.4032 4.29333 64.9366 3.85C64.4932 3.40666 63.9332 3.185 63.2566 3.185C62.6266 3.185 62.0666 3.40666 61.5766 3.85C61.1099 4.29333 60.8766 4.84167 60.8766 5.495ZM61.4016 11.9V28H65.1116V11.9H61.4016ZM68.9834 11.9V15.225H78.2234V11.9H68.9834ZM77.8034 4.76L79.5884 1.82C79.4018 1.58667 79.1334 1.35333 78.7834 1.12C78.4568 0.886665 78.0601 0.688332 77.5934 0.524999C77.1268 0.361665 76.5784 0.279998 75.9484 0.279998C74.8284 0.279998 73.8834 0.501665 73.1134 0.944998C72.3434 1.365 71.7484 1.995 71.3284 2.835C70.9318 3.65167 70.7334 4.69 70.7334 5.95V28H74.4434V6.685C74.4434 6.00833 74.5134 5.46 74.6534 5.04C74.7934 4.62 74.9801 4.31667 75.2134 4.13C75.4701 3.94333 75.7734 3.85 76.1234 3.85C76.4268 3.85 76.7184 3.90833 76.9984 4.025C77.3018 4.14167 77.5701 4.38667 77.8034 4.76ZM80.9742 5.495C80.9742 6.125 81.2076 6.67333 81.6742 7.14C82.1642 7.58333 82.7242 7.805 83.3542 7.805C84.0309 7.805 84.5909 7.58333 85.0342 7.14C85.5009 6.67333 85.7342 6.125 85.7342 5.495C85.7342 4.84167 85.5009 4.29333 85.0342 3.85C84.5909 3.40666 84.0309 3.185 83.3542 3.185C82.7242 3.185 82.1642 3.40666 81.6742 3.85C81.2076 4.29333 80.9742 4.84167 80.9742 5.495ZM81.4992 11.9V28H85.2092V11.9H81.4992ZM92.9311 19.95C92.9311 18.9467 93.1528 18.06 93.5961 17.29C94.0394 16.52 94.6344 15.9133 95.3811 15.47C96.1511 15.0267 97.0028 14.805 97.9361 14.805C98.6828 14.805 99.4061 14.9217 100.106 15.155C100.806 15.3883 101.424 15.715 101.961 16.135C102.521 16.5317 102.929 16.9983 103.186 17.535V13.37C102.626 12.81 101.868 12.3667 100.911 12.04C99.9544 11.7133 98.9044 11.55 97.7611 11.55C96.1044 11.55 94.6111 11.9117 93.2811 12.635C91.9744 13.335 90.9361 14.315 90.1661 15.575C89.4194 16.835 89.0461 18.2933 89.0461 19.95C89.0461 21.5833 89.4194 23.0417 90.1661 24.325C90.9361 25.585 91.9744 26.5767 93.2811 27.3C94.6111 28 96.1044 28.35 97.7611 28.35C98.9044 28.35 99.9544 28.1867 100.911 27.86C101.868 27.5333 102.626 27.09 103.186 26.53V22.365C102.929 22.8783 102.533 23.345 101.996 23.765C101.459 24.185 100.841 24.5117 100.141 24.745C99.4411 24.9783 98.7061 25.095 97.9361 25.095C97.0028 25.095 96.1511 24.8733 95.3811 24.43C94.6344 23.9867 94.0394 23.3917 93.5961 22.645C93.1528 21.875 92.9311 20.9767 92.9311 19.95ZM109.744 22.995C109.744 22.4817 109.861 22.05 110.094 21.7C110.351 21.35 110.724 21.0817 111.214 20.895C111.704 20.685 112.346 20.58 113.139 20.58C114.049 20.58 114.913 20.6967 115.729 20.93C116.546 21.1633 117.316 21.5367 118.039 22.05V20.125C117.829 19.8683 117.468 19.5883 116.954 19.285C116.441 18.9583 115.788 18.6783 114.994 18.445C114.224 18.2117 113.303 18.095 112.229 18.095C110.223 18.095 108.671 18.5617 107.574 19.495C106.478 20.405 105.929 21.6417 105.929 23.205C105.929 24.3017 106.186 25.235 106.699 26.005C107.213 26.775 107.901 27.3583 108.764 27.755C109.628 28.1517 110.561 28.35 111.564 28.35C112.498 28.35 113.408 28.1867 114.294 27.86C115.204 27.51 115.951 26.9967 116.534 26.32C117.141 25.62 117.444 24.7567 117.444 23.73L116.884 21.63C116.884 22.4233 116.686 23.1233 116.289 23.73C115.916 24.3133 115.414 24.7567 114.784 25.06C114.178 25.3633 113.501 25.515 112.754 25.515C112.171 25.515 111.646 25.4217 111.179 25.235C110.736 25.0483 110.386 24.7683 110.129 24.395C109.873 23.9983 109.744 23.5317 109.744 22.995ZM108.554 16.1C108.788 15.9367 109.138 15.7383 109.604 15.505C110.094 15.2483 110.666 15.0383 111.319 14.875C111.996 14.6883 112.708 14.595 113.454 14.595C113.944 14.595 114.399 14.6417 114.819 14.735C115.239 14.8283 115.601 14.98 115.904 15.19C116.208 15.4 116.441 15.6683 116.604 15.995C116.791 16.3217 116.884 16.7417 116.884 17.255V28H120.594V16.52C120.594 15.4467 120.303 14.5483 119.719 13.825C119.136 13.0783 118.331 12.5067 117.304 12.11C116.301 11.7133 115.134 11.515 113.804 11.515C112.311 11.515 110.981 11.725 109.814 12.145C108.671 12.565 107.738 12.9967 107.014 13.44L108.554 16.1ZM122.761 11.9V15.225H131.896V11.9H122.761ZM125.456 6.3V28H129.201V6.3H125.456ZM134.363 5.495C134.363 6.125 134.596 6.67333 135.063 7.14C135.553 7.58333 136.113 7.805 136.743 7.805C137.42 7.805 137.98 7.58333 138.423 7.14C138.89 6.67333 139.123 6.125 139.123 5.495C139.123 4.84167 138.89 4.29333 138.423 3.85C137.98 3.40666 137.42 3.185 136.743 3.185C136.113 3.185 135.553 3.40666 135.063 3.85C134.596 4.29333 134.363 4.84167 134.363 5.495ZM134.888 11.9V28H138.598V11.9H134.888ZM142.575 19.95C142.575 21.5833 142.948 23.0417 143.695 24.325C144.465 25.585 145.503 26.5767 146.81 27.3C148.116 28 149.598 28.35 151.255 28.35C152.911 28.35 154.381 28 155.665 27.3C156.971 26.5767 158.01 25.585 158.78 24.325C159.55 23.0417 159.935 21.5833 159.935 19.95C159.935 18.2933 159.55 16.835 158.78 15.575C158.01 14.315 156.971 13.335 155.665 12.635C154.381 11.9117 152.911 11.55 151.255 11.55C149.598 11.55 148.116 11.9117 146.81 12.635C145.503 13.335 144.465 14.315 143.695 15.575C142.948 16.835 142.575 18.2933 142.575 19.95ZM146.46 19.95C146.46 18.9467 146.67 18.06 147.09 17.29C147.51 16.52 148.081 15.925 148.805 15.505C149.528 15.085 150.345 14.875 151.255 14.875C152.141 14.875 152.946 15.085 153.67 15.505C154.416 15.925 155 16.52 155.42 17.29C155.84 18.06 156.05 18.9467 156.05 19.95C156.05 20.9533 155.84 21.84 155.42 22.61C155 23.3567 154.416 23.9517 153.67 24.395C152.946 24.815 152.141 25.025 151.255 25.025C150.345 25.025 149.528 24.815 148.805 24.395C148.081 23.9517 147.51 23.3567 147.09 22.61C146.67 21.84 146.46 20.9533 146.46 19.95ZM173.881 18.2V28H177.766V17.78C177.766 15.8433 177.288 14.3267 176.331 13.23C175.375 12.11 173.986 11.55 172.166 11.55C171.046 11.55 170.078 11.7833 169.261 12.25C168.468 12.7167 167.815 13.4283 167.301 14.385V11.9H163.521V28H167.301V18.2C167.301 17.4767 167.453 16.8467 167.756 16.31C168.06 15.75 168.48 15.33 169.016 15.05C169.553 14.7467 170.171 14.595 170.871 14.595C171.898 14.595 172.656 14.8983 173.146 15.505C173.636 16.1117 173.881 17.01 173.881 18.2ZM183.329 22.715L181.124 24.92C181.59 25.5267 182.162 26.11 182.839 26.67C183.539 27.2067 184.344 27.65 185.254 28C186.187 28.3267 187.202 28.49 188.299 28.49C190.072 28.49 191.472 28.035 192.499 27.125C193.549 26.1917 194.074 24.9667 194.074 23.45C194.074 22.47 193.84 21.6767 193.374 21.07C192.93 20.4633 192.335 19.95 191.589 19.53C190.842 19.11 190.025 18.725 189.139 18.375C188.485 18.1183 187.89 17.8733 187.354 17.64C186.84 17.4067 186.42 17.15 186.094 16.87C185.79 16.5667 185.639 16.2283 185.639 15.855C185.639 15.4117 185.814 15.0733 186.164 14.84C186.514 14.6067 186.957 14.49 187.494 14.49C188.287 14.49 189.057 14.6883 189.804 15.085C190.55 15.4817 191.192 15.995 191.729 16.625L193.829 14.385C193.385 13.8483 192.849 13.37 192.219 12.95C191.589 12.53 190.877 12.1917 190.084 11.935C189.314 11.6783 188.485 11.55 187.599 11.55C186.619 11.55 185.697 11.7133 184.834 12.04C183.994 12.3433 183.317 12.8217 182.804 13.475C182.314 14.1283 182.069 14.945 182.069 15.925C182.069 16.8817 182.29 17.675 182.734 18.305C183.2 18.935 183.784 19.4483 184.484 19.845C185.207 20.2183 185.93 20.545 186.654 20.825C187.377 21.0817 188.007 21.3383 188.544 21.595C189.08 21.8283 189.5 22.12 189.804 22.47C190.107 22.7967 190.259 23.1933 190.259 23.66C190.259 24.1967 190.06 24.6167 189.664 24.92C189.29 25.2233 188.765 25.375 188.089 25.375C187.552 25.375 187.015 25.2817 186.479 25.095C185.942 24.885 185.405 24.5817 184.869 24.185C184.355 23.765 183.842 23.275 183.329 22.715Z" fill="#E5E5E5"/>
</g>
<defs>
<filter id="filter0_d_36_2" x="0.72998" y="0.279999" width="197.344" height="36.945" filterUnits="userSpaceOnUse" color-interpolation-filters="sRGB">
<feFlood flood-opacity="0" result="BackgroundImageFix"/>
<feColorMatrix in="SourceAlpha" type="matrix" values="0 0 0 0 0 0 0 0 0 0 0 0 0 0 0 0 0 0 127 0" result="hardAlpha"/>
<feOffset dy="4"/>
<feGaussianBlur stdDeviation="2"/>
<feComposite in2="hardAlpha" operator="out"/>
<feColorMatrix type="matrix" values="0 0 0 0 0 0 0 0 0 0 0 0 0 0 0 0 0 0 0.25 0"/>
<feBlend mode="normal" in2="BackgroundImageFix" result="effect1_dropShadow_36_2"/>
<feBlend mode="normal" in="SourceGraphic" in2="effect1_dropShadow_36_2" result="shape"/>
</filter>
</defs>
</svg>
