<svg width="126" height="42" viewBox="0 0 126 42" fill="none" xmlns="http://www.w3.org/2000/svg">
<g filter="url(#filter0_d_29_43)">
<path d="M7.34 17.125L4.26 19.26C4.79667 20.38 5.52 21.4183 6.43 22.375C7.34 23.3317 8.40167 24.1017 9.615 24.685C10.8517 25.245 12.1933 25.525 13.64 25.525C14.69 25.525 15.6933 25.35 16.65 25C17.63 24.6733 18.505 24.2067 19.275 23.6C20.045 22.97 20.6517 22.2 21.095 21.29C21.5383 20.38 21.76 19.3533 21.76 18.21C21.76 17.1367 21.5733 16.2033 21.2 15.41C20.85 14.6167 20.3717 13.9283 19.765 13.345C19.1583 12.7383 18.4817 12.2367 17.735 11.84C17.0117 11.4433 16.2883 11.1167 15.565 10.86C14.2583 10.3933 13.1967 9.93833 12.38 9.495C11.5633 9.05167 10.9567 8.585 10.56 8.095C10.1867 7.58167 10 7.01 10 6.38C10 5.68 10.2683 5.07333 10.805 4.56C11.3417 4.02333 12.1817 3.755 13.325 3.755C14.1417 3.755 14.8533 3.91833 15.46 4.245C16.09 4.54833 16.6383 4.96833 17.105 5.505C17.5717 6.01833 17.9567 6.57833 18.26 7.185L21.62 5.295C21.2 4.43167 20.6167 3.60333 19.87 2.81C19.1467 2.01667 18.2483 1.36333 17.175 0.849998C16.1017 0.336666 14.8417 0.0799996 13.395 0.0799996C11.925 0.0799996 10.6067 0.359999 9.44 0.919999C8.29667 1.45667 7.38667 2.22667 6.71 3.23C6.03333 4.21 5.695 5.35333 5.695 6.66C5.695 7.80333 5.91667 8.78333 6.36 9.6C6.80333 10.3933 7.36333 11.07 8.04 11.63C8.71667 12.1667 9.42833 12.6217 10.175 12.995C10.9217 13.345 11.5983 13.625 12.205 13.835C13.2317 14.2083 14.13 14.5933 14.9 14.99C15.6933 15.3633 16.3117 15.83 16.755 16.39C17.1983 16.9267 17.42 17.65 17.42 18.56C17.42 19.5167 17.07 20.2983 16.37 20.905C15.67 21.5117 14.76 21.815 13.64 21.815C12.7067 21.815 11.8667 21.6283 11.12 21.255C10.3733 20.8583 9.685 20.31 9.055 19.61C8.44833 18.8867 7.87667 18.0583 7.34 17.125ZM25.5436 2.495C25.5436 3.125 25.7769 3.67333 26.2436 4.14C26.7336 4.58333 27.2936 4.805 27.9236 4.805C28.6002 4.805 29.1602 4.58333 29.6036 4.14C30.0702 3.67333 30.3036 3.125 30.3036 2.495C30.3036 1.84167 30.0702 1.29333 29.6036 0.849998C29.1602 0.406665 28.6002 0.184998 27.9236 0.184998C27.2936 0.184998 26.7336 0.406665 26.2436 0.849998C25.7769 1.29333 25.5436 1.84167 25.5436 2.495ZM26.0686 8.9V25H29.7786V8.9H26.0686ZM34.0704 26.085C34.1171 27.485 34.4671 28.7217 35.1204 29.795C35.7971 30.8683 36.7538 31.6967 37.9904 32.28C39.2271 32.8867 40.7204 33.19 42.4704 33.19C43.9404 33.19 45.3054 32.875 46.5654 32.245C47.8254 31.6383 48.8404 30.705 49.6104 29.445C50.4038 28.185 50.8004 26.5867 50.8004 24.65V8.9H47.0904V24.65C47.0904 25.8633 46.8571 26.855 46.3904 27.625C45.9471 28.395 45.3638 28.9667 44.6404 29.34C43.9171 29.7133 43.1588 29.9 42.3654 29.9C41.4788 29.9 40.6971 29.7367 40.0204 29.41C39.3438 29.0833 38.8071 28.6283 38.4104 28.045C38.0371 27.4617 37.8388 26.8083 37.8154 26.085H34.0704ZM33.7554 16.88C33.7554 18.63 34.1171 20.1233 34.8404 21.36C35.5638 22.5967 36.5204 23.5417 37.7104 24.195C38.9238 24.8483 40.2188 25.175 41.5954 25.175C42.9488 25.175 44.1271 24.8483 45.1304 24.195C46.1571 23.5183 46.9621 22.5617 47.5454 21.325C48.1521 20.0883 48.4554 18.6067 48.4554 16.88C48.4554 15.13 48.1521 13.6367 47.5454 12.4C46.9621 11.1633 46.1571 10.2183 45.1304 9.565C44.1271 8.88833 42.9488 8.55 41.5954 8.55C40.2188 8.55 38.9238 8.87667 37.7104 9.53C36.5204 10.1833 35.5638 11.1283 34.8404 12.365C34.1171 13.5783 33.7554 15.0833 33.7554 16.88ZM37.6754 16.88C37.6754 15.7833 37.8971 14.8617 38.3404 14.115C38.7838 13.3683 39.3671 12.8083 40.0904 12.435C40.8371 12.0383 41.6421 11.84 42.5054 11.84C43.0421 11.84 43.5788 11.945 44.1154 12.155C44.6754 12.365 45.1771 12.6917 45.6204 13.135C46.0638 13.555 46.4138 14.08 46.6704 14.71C46.9504 15.3167 47.0904 16.04 47.0904 16.88C47.0904 17.9533 46.8571 18.875 46.3904 19.645C45.9471 20.3917 45.3638 20.9517 44.6404 21.325C43.9404 21.6983 43.2288 21.885 42.5054 21.885C41.6421 21.885 40.8371 21.6983 40.0904 21.325C39.3671 20.9283 38.7838 20.3567 38.3404 19.61C37.8971 18.8633 37.6754 17.9533 37.6754 16.88ZM65.8482 15.2V25H69.7332V14.78C69.7332 12.8433 69.2549 11.3267 68.2982 10.23C67.3416 9.11 65.9532 8.55 64.1332 8.55C63.0132 8.55 62.0449 8.78333 61.2282 9.25C60.4349 9.71667 59.7816 10.4283 59.2682 11.385V8.9H55.4882V25H59.2682V15.2C59.2682 14.4767 59.4199 13.8467 59.7232 13.31C60.0266 12.75 60.4466 12.33 60.9832 12.05C61.5199 11.7467 62.1382 11.595 62.8382 11.595C63.8649 11.595 64.6232 11.8983 65.1132 12.505C65.6032 13.1117 65.8482 14.01 65.8482 15.2ZM88.9387 18.7V8.9H85.0537V19.12C85.0537 21.0333 85.532 22.55 86.4887 23.67C87.4687 24.79 88.857 25.35 90.6537 25.35C91.7737 25.35 92.7303 25.1167 93.5237 24.65C94.3403 24.16 95.0053 23.4483 95.5187 22.515V25H99.2987V8.9H95.5187V18.7C95.5187 19.4233 95.367 20.065 95.0637 20.625C94.7603 21.1617 94.3403 21.5817 93.8037 21.885C93.267 22.165 92.637 22.305 91.9137 22.305C90.9103 22.305 90.1637 21.99 89.6737 21.36C89.1837 20.73 88.9387 19.8433 88.9387 18.7ZM107.801 32.7V8.9H103.986V32.7H107.801ZM121.136 16.95C121.136 15.1533 120.774 13.625 120.051 12.365C119.328 11.105 118.371 10.1483 117.181 9.495C115.991 8.81833 114.696 8.48 113.296 8.48C111.919 8.48 110.718 8.83 109.691 9.53C108.688 10.2067 107.906 11.175 107.346 12.435C106.809 13.695 106.541 15.2 106.541 16.95C106.541 18.6767 106.809 20.1817 107.346 21.465C107.906 22.725 108.688 23.705 109.691 24.405C110.718 25.0817 111.919 25.42 113.296 25.42C114.696 25.42 115.991 25.0933 117.181 24.44C118.371 23.7633 119.328 22.795 120.051 21.535C120.774 20.2517 121.136 18.7233 121.136 16.95ZM117.216 16.95C117.216 18.0233 116.994 18.945 116.551 19.715C116.108 20.4617 115.513 21.0333 114.766 21.43C114.043 21.8033 113.238 21.99 112.351 21.99C111.628 21.99 110.916 21.8033 110.216 21.43C109.516 21.0333 108.933 20.4617 108.466 19.715C108.023 18.9683 107.801 18.0467 107.801 16.95C107.801 15.8533 108.023 14.9317 108.466 14.185C108.933 13.4383 109.516 12.8783 110.216 12.505C110.916 12.1083 111.628 11.91 112.351 11.91C113.238 11.91 114.043 12.1083 114.766 12.505C115.513 12.8783 116.108 13.45 116.551 14.22C116.994 14.9667 117.216 15.8767 117.216 16.95Z" fill="#E5E5E5"/>
</g>
<defs>
<filter id="filter0_d_29_43" x="0.26001" y="0.0799866" width="124.876" height="41.11" filterUnits="userSpaceOnUse" color-interpolation-filters="sRGB">
<feFlood flood-opacity="0" result="BackgroundImageFix"/>
<feColorMatrix in="SourceAlpha" type="matrix" values="0 0 0 0 0 0 0 0 0 0 0 0 0 0 0 0 0 0 127 0" result="hardAlpha"/>
<feOffset dy="4"/>
<feGaussianBlur stdDeviation="2"/>
<feComposite in2="hardAlpha" operator="out"/>
<feColorMatrix type="matrix" values="0 0 0 0 0 0 0 0 0 0 0 0 0 0 0 0 0 0 0.25 0"/>
<feBlend mode="normal" in2="BackgroundImageFix" result="effect1_dropShadow_29_43"/>
<feBlend mode="normal" in="SourceGraphic" in2="effect1_dropShadow_29_43" result="shape"/>
</filter>
</defs>
</svg>
