<svg width="113" height="42" viewBox="0 0 113 42" fill="none" xmlns="http://www.w3.org/2000/svg">
<g filter="url(#filter0_d_29_42)">
<path d="M7.34 17.125L4.26 19.26C4.79667 20.38 5.52 21.4183 6.43 22.375C7.34 23.3317 8.40167 24.1017 9.615 24.685C10.8517 25.245 12.1933 25.525 13.64 25.525C14.69 25.525 15.6933 25.35 16.65 25C17.63 24.6733 18.505 24.2067 19.275 23.6C20.045 22.97 20.6517 22.2 21.095 21.29C21.5383 20.38 21.76 19.3533 21.76 18.21C21.76 17.1367 21.5733 16.2033 21.2 15.41C20.85 14.6167 20.3717 13.9283 19.765 13.345C19.1583 12.7383 18.4817 12.2367 17.735 11.84C17.0117 11.4433 16.2883 11.1167 15.565 10.86C14.2583 10.3933 13.1967 9.93833 12.38 9.495C11.5633 9.05167 10.9567 8.585 10.56 8.095C10.1867 7.58167 10 7.01 10 6.38C10 5.68 10.2683 5.07333 10.805 4.56C11.3417 4.02333 12.1817 3.755 13.325 3.755C14.1417 3.755 14.8533 3.91833 15.46 4.245C16.09 4.54833 16.6383 4.96833 17.105 5.505C17.5717 6.01833 17.9567 6.57833 18.26 7.185L21.62 5.295C21.2 4.43167 20.6167 3.60333 19.87 2.81C19.1467 2.01667 18.2483 1.36333 17.175 0.849998C16.1017 0.336666 14.8417 0.0799996 13.395 0.0799996C11.925 0.0799996 10.6067 0.359999 9.44 0.919999C8.29667 1.45667 7.38667 2.22667 6.71 3.23C6.03333 4.21 5.695 5.35333 5.695 6.66C5.695 7.80333 5.91667 8.78333 6.36 9.6C6.80333 10.3933 7.36333 11.07 8.04 11.63C8.71667 12.1667 9.42833 12.6217 10.175 12.995C10.9217 13.345 11.5983 13.625 12.205 13.835C13.2317 14.2083 14.13 14.5933 14.9 14.99C15.6933 15.3633 16.3117 15.83 16.755 16.39C17.1983 16.9267 17.42 17.65 17.42 18.56C17.42 19.5167 17.07 20.2983 16.37 20.905C15.67 21.5117 14.76 21.815 13.64 21.815C12.7067 21.815 11.8667 21.6283 11.12 21.255C10.3733 20.8583 9.685 20.31 9.055 19.61C8.44833 18.8867 7.87667 18.0583 7.34 17.125ZM25.5436 2.495C25.5436 3.125 25.7769 3.67333 26.2436 4.14C26.7336 4.58333 27.2936 4.805 27.9236 4.805C28.6002 4.805 29.1602 4.58333 29.6036 4.14C30.0702 3.67333 30.3036 3.125 30.3036 2.495C30.3036 1.84167 30.0702 1.29333 29.6036 0.849998C29.1602 0.406665 28.6002 0.184998 27.9236 0.184998C27.2936 0.184998 26.7336 0.406665 26.2436 0.849998C25.7769 1.29333 25.5436 1.84167 25.5436 2.495ZM26.0686 8.9V25H29.7786V8.9H26.0686ZM34.0704 26.085C34.1171 27.485 34.4671 28.7217 35.1204 29.795C35.7971 30.8683 36.7538 31.6967 37.9904 32.28C39.2271 32.8867 40.7204 33.19 42.4704 33.19C43.9404 33.19 45.3054 32.875 46.5654 32.245C47.8254 31.6383 48.8404 30.705 49.6104 29.445C50.4038 28.185 50.8004 26.5867 50.8004 24.65V8.9H47.0904V24.65C47.0904 25.8633 46.8571 26.855 46.3904 27.625C45.9471 28.395 45.3638 28.9667 44.6404 29.34C43.9171 29.7133 43.1588 29.9 42.3654 29.9C41.4788 29.9 40.6971 29.7367 40.0204 29.41C39.3438 29.0833 38.8071 28.6283 38.4104 28.045C38.0371 27.4617 37.8388 26.8083 37.8154 26.085H34.0704ZM33.7554 16.88C33.7554 18.63 34.1171 20.1233 34.8404 21.36C35.5638 22.5967 36.5204 23.5417 37.7104 24.195C38.9238 24.8483 40.2188 25.175 41.5954 25.175C42.9488 25.175 44.1271 24.8483 45.1304 24.195C46.1571 23.5183 46.9621 22.5617 47.5454 21.325C48.1521 20.0883 48.4554 18.6067 48.4554 16.88C48.4554 15.13 48.1521 13.6367 47.5454 12.4C46.9621 11.1633 46.1571 10.2183 45.1304 9.565C44.1271 8.88833 42.9488 8.55 41.5954 8.55C40.2188 8.55 38.9238 8.87667 37.7104 9.53C36.5204 10.1833 35.5638 11.1283 34.8404 12.365C34.1171 13.5783 33.7554 15.0833 33.7554 16.88ZM37.6754 16.88C37.6754 15.7833 37.8971 14.8617 38.3404 14.115C38.7838 13.3683 39.3671 12.8083 40.0904 12.435C40.8371 12.0383 41.6421 11.84 42.5054 11.84C43.0421 11.84 43.5788 11.945 44.1154 12.155C44.6754 12.365 45.1771 12.6917 45.6204 13.135C46.0638 13.555 46.4138 14.08 46.6704 14.71C46.9504 15.3167 47.0904 16.04 47.0904 16.88C47.0904 17.9533 46.8571 18.875 46.3904 19.645C45.9471 20.3917 45.3638 20.9517 44.6404 21.325C43.9404 21.6983 43.2288 21.885 42.5054 21.885C41.6421 21.885 40.8371 21.6983 40.0904 21.325C39.3671 20.9283 38.7838 20.3567 38.3404 19.61C37.8971 18.8633 37.6754 17.9533 37.6754 16.88ZM65.8482 15.2V25H69.7332V14.78C69.7332 12.8433 69.2549 11.3267 68.2982 10.23C67.3416 9.11 65.9532 8.55 64.1332 8.55C63.0132 8.55 62.0449 8.78333 61.2282 9.25C60.4349 9.71667 59.7816 10.4283 59.2682 11.385V8.9H55.4882V25H59.2682V15.2C59.2682 14.4767 59.4199 13.8467 59.7232 13.31C60.0266 12.75 60.4466 12.33 60.9832 12.05C61.5199 11.7467 62.1382 11.595 62.8382 11.595C63.8649 11.595 64.6232 11.8983 65.1132 12.505C65.6032 13.1117 65.8482 14.01 65.8482 15.2ZM84.9137 2.495C84.9137 3.125 85.147 3.67333 85.6137 4.14C86.1037 4.58333 86.6637 4.805 87.2937 4.805C87.9703 4.805 88.5303 4.58333 88.9737 4.14C89.4403 3.67333 89.6737 3.125 89.6737 2.495C89.6737 1.84167 89.4403 1.29333 88.9737 0.849998C88.5303 0.406665 87.9703 0.184998 87.2937 0.184998C86.6637 0.184998 86.1037 0.406665 85.6137 0.849998C85.147 1.29333 84.9137 1.84167 84.9137 2.495ZM85.4387 8.9V25H89.1487V8.9H85.4387ZM104.711 15.2V25H108.596V14.78C108.596 12.8433 108.117 11.3267 107.161 10.23C106.204 9.11 104.816 8.55 102.996 8.55C101.876 8.55 100.907 8.78333 100.091 9.25C99.2972 9.71667 98.6439 10.4283 98.1305 11.385V8.9H94.3505V25H98.1305V15.2C98.1305 14.4767 98.2822 13.8467 98.5855 13.31C98.8889 12.75 99.3089 12.33 99.8455 12.05C100.382 11.7467 101.001 11.595 101.701 11.595C102.727 11.595 103.486 11.8983 103.976 12.505C104.466 13.1117 104.711 14.01 104.711 15.2Z" fill="#E5E5E5"/>
</g>
<defs>
<filter id="filter0_d_29_42" x="0.26001" y="0.0799866" width="112.336" height="41.11" filterUnits="userSpaceOnUse" color-interpolation-filters="sRGB">
<feFlood flood-opacity="0" result="BackgroundImageFix"/>
<feColorMatrix in="SourceAlpha" type="matrix" values="0 0 0 0 0 0 0 0 0 0 0 0 0 0 0 0 0 0 127 0" result="hardAlpha"/>
<feOffset dy="4"/>
<feGaussianBlur stdDeviation="2"/>
<feComposite in2="hardAlpha" operator="out"/>
<feColorMatrix type="matrix" values="0 0 0 0 0 0 0 0 0 0 0 0 0 0 0 0 0 0 0.25 0"/>
<feBlend mode="normal" in2="BackgroundImageFix" result="effect1_dropShadow_29_42"/>
<feBlend mode="normal" in="SourceGraphic" in2="effect1_dropShadow_29_42" result="shape"/>
</filter>
</defs>
</svg>
