<svg width="224" height="38" viewBox="0 0 224 38" fill="none" xmlns="http://www.w3.org/2000/svg">
<g filter="url(#filter0_d_29_38)">
<path d="M6.375 16.765H23.84V12.95H6.375V16.765ZM21.18 3.5V28H25.31V3.5H21.18ZM4.73 3.5V28H8.86V3.5H4.73ZM29.2349 19.95C29.2349 21.5833 29.6083 23.0417 30.3549 24.325C31.1249 25.585 32.1633 26.5767 33.4699 27.3C34.7766 28 36.2583 28.35 37.9149 28.35C39.5716 28.35 41.0416 28 42.3249 27.3C43.6316 26.5767 44.6699 25.585 45.4399 24.325C46.2099 23.0417 46.5949 21.5833 46.5949 19.95C46.5949 18.2933 46.2099 16.835 45.4399 15.575C44.6699 14.315 43.6316 13.335 42.3249 12.635C41.0416 11.9117 39.5716 11.55 37.9149 11.55C36.2583 11.55 34.7766 11.9117 33.4699 12.635C32.1633 13.335 31.1249 14.315 30.3549 15.575C29.6083 16.835 29.2349 18.2933 29.2349 19.95ZM33.1199 19.95C33.1199 18.9467 33.3299 18.06 33.7499 17.29C34.1699 16.52 34.7416 15.925 35.4649 15.505C36.1883 15.085 37.0049 14.875 37.9149 14.875C38.8016 14.875 39.6066 15.085 40.3299 15.505C41.0766 15.925 41.6599 16.52 42.0799 17.29C42.4999 18.06 42.7099 18.9467 42.7099 19.95C42.7099 20.9533 42.4999 21.84 42.0799 22.61C41.6599 23.3567 41.0766 23.9517 40.3299 24.395C39.6066 24.815 38.8016 25.025 37.9149 25.025C37.0049 25.025 36.1883 24.815 35.4649 24.395C34.7416 23.9517 34.1699 23.3567 33.7499 22.61C33.3299 21.84 33.1199 20.9533 33.1199 19.95ZM47.2539 11.9L54.7789 29.155L59.6089 18.27L64.6489 29.155L72.1739 11.9H68.0789L64.2989 21.525L59.5739 10.675L55.1289 21.49L51.3489 11.9H47.2539ZM84.9391 5.495C84.9391 6.125 85.1724 6.67333 85.6391 7.14C86.1291 7.58333 86.6891 7.805 87.3191 7.805C87.9957 7.805 88.5557 7.58333 88.9991 7.14C89.4657 6.67333 89.6991 6.125 89.6991 5.495C89.6991 4.84167 89.4657 4.29333 88.9991 3.85C88.5557 3.40666 87.9957 3.185 87.3191 3.185C86.6891 3.185 86.1291 3.40666 85.6391 3.85C85.1724 4.29333 84.9391 4.84167 84.9391 5.495ZM85.4641 11.9V28H89.1741V11.9H85.4641ZM92.1359 11.9V15.225H101.271V11.9H92.1359ZM94.8309 6.3V28H98.5759V6.3H94.8309ZM111.956 11.9L119.481 29.155L124.311 18.27L129.351 29.155L136.876 11.9H132.781L129.001 21.525L124.276 10.675L119.831 21.49L116.051 11.9H111.956ZM137.55 19.95C137.55 21.5833 137.924 23.0417 138.67 24.325C139.44 25.585 140.479 26.5767 141.785 27.3C143.092 28 144.574 28.35 146.23 28.35C147.887 28.35 149.357 28 150.64 27.3C151.947 26.5767 152.985 25.585 153.755 24.325C154.525 23.0417 154.91 21.5833 154.91 19.95C154.91 18.2933 154.525 16.835 153.755 15.575C152.985 14.315 151.947 13.335 150.64 12.635C149.357 11.9117 147.887 11.55 146.23 11.55C144.574 11.55 143.092 11.9117 141.785 12.635C140.479 13.335 139.44 14.315 138.67 15.575C137.924 16.835 137.55 18.2933 137.55 19.95ZM141.435 19.95C141.435 18.9467 141.645 18.06 142.065 17.29C142.485 16.52 143.057 15.925 143.78 15.505C144.504 15.085 145.32 14.875 146.23 14.875C147.117 14.875 147.922 15.085 148.645 15.505C149.392 15.925 149.975 16.52 150.395 17.29C150.815 18.06 151.025 18.9467 151.025 19.95C151.025 20.9533 150.815 21.84 150.395 22.61C149.975 23.3567 149.392 23.9517 148.645 24.395C147.922 24.815 147.117 25.025 146.23 25.025C145.32 25.025 144.504 24.815 143.78 24.395C143.057 23.9517 142.485 23.3567 142.065 22.61C141.645 21.84 141.435 20.9533 141.435 19.95ZM162.242 11.9H158.497V28H162.242V11.9ZM167.037 15.925L168.857 12.74C168.507 12.2967 168.075 11.9933 167.562 11.83C167.049 11.6433 166.5 11.55 165.917 11.55C165.1 11.55 164.307 11.8417 163.537 12.425C162.79 13.0083 162.172 13.8017 161.682 14.805C161.215 15.785 160.982 16.9167 160.982 18.2L162.242 18.935C162.242 18.165 162.324 17.5 162.487 16.94C162.674 16.3567 162.965 15.9017 163.362 15.575C163.759 15.2483 164.272 15.085 164.902 15.085C165.369 15.085 165.754 15.155 166.057 15.295C166.36 15.435 166.687 15.645 167.037 15.925ZM171.311 0.699999V28H175.021V0.699999H171.311ZM180.936 11.9L173.971 18.55L181.671 28H186.256L178.626 18.55L185.556 11.9H180.936ZM189.515 22.715L187.31 24.92C187.777 25.5267 188.349 26.11 189.025 26.67C189.725 27.2067 190.53 27.65 191.44 28C192.374 28.3267 193.389 28.49 194.485 28.49C196.259 28.49 197.659 28.035 198.685 27.125C199.735 26.1917 200.26 24.9667 200.26 23.45C200.26 22.47 200.027 21.6767 199.56 21.07C199.117 20.4633 198.522 19.95 197.775 19.53C197.029 19.11 196.212 18.725 195.325 18.375C194.672 18.1183 194.077 17.8733 193.54 17.64C193.027 17.4067 192.607 17.15 192.28 16.87C191.977 16.5667 191.825 16.2283 191.825 15.855C191.825 15.4117 192 15.0733 192.35 14.84C192.7 14.6067 193.144 14.49 193.68 14.49C194.474 14.49 195.244 14.6883 195.99 15.085C196.737 15.4817 197.379 15.995 197.915 16.625L200.015 14.385C199.572 13.8483 199.035 13.37 198.405 12.95C197.775 12.53 197.064 12.1917 196.27 11.935C195.5 11.6783 194.672 11.55 193.785 11.55C192.805 11.55 191.884 11.7133 191.02 12.04C190.18 12.3433 189.504 12.8217 188.99 13.475C188.5 14.1283 188.255 14.945 188.255 15.925C188.255 16.8817 188.477 17.675 188.92 18.305C189.387 18.935 189.97 19.4483 190.67 19.845C191.394 20.2183 192.117 20.545 192.84 20.825C193.564 21.0817 194.194 21.3383 194.73 21.595C195.267 21.8283 195.687 22.12 195.99 22.47C196.294 22.7967 196.445 23.1933 196.445 23.66C196.445 24.1967 196.247 24.6167 195.85 24.92C195.477 25.2233 194.952 25.375 194.275 25.375C193.739 25.375 193.202 25.2817 192.665 25.095C192.129 24.885 191.592 24.5817 191.055 24.185C190.542 23.765 190.029 23.275 189.515 22.715ZM215.829 10.5C215.829 11.27 215.573 12.04 215.059 12.81C214.569 13.5567 213.834 14.1867 212.854 14.7C211.898 15.19 210.719 15.435 209.319 15.435H208.304L209.004 21.63H211.979L212.189 17.92C213.496 17.8033 214.709 17.4183 215.829 16.765C216.949 16.0883 217.859 15.2133 218.559 14.14C219.283 13.0667 219.644 11.8533 219.644 10.5C219.644 9.38 219.434 8.365 219.014 7.455C218.594 6.545 217.999 5.76333 217.229 5.11C216.483 4.43333 215.619 3.92 214.639 3.57C213.659 3.19667 212.609 3.01 211.489 3.01C210.113 3.01 208.911 3.185 207.884 3.535C206.881 3.885 205.994 4.38667 205.224 5.04C204.478 5.67 203.778 6.41667 203.124 7.28L205.924 9.345C206.508 8.41167 207.243 7.68833 208.129 7.175C209.016 6.63833 210.019 6.37 211.139 6.37C212.119 6.37 212.948 6.53333 213.624 6.86C214.324 7.18667 214.861 7.65333 215.234 8.26C215.631 8.86667 215.829 9.61333 215.829 10.5ZM208.094 26.355C208.094 26.9617 208.328 27.4983 208.794 27.965C209.284 28.4317 209.868 28.665 210.544 28.665C211.268 28.665 211.863 28.4317 212.329 27.965C212.796 27.4983 213.029 26.9617 213.029 26.355C213.029 25.7017 212.796 25.1533 212.329 24.71C211.863 24.2433 211.268 24.01 210.544 24.01C209.868 24.01 209.284 24.2433 208.794 24.71C208.328 25.1533 208.094 25.7017 208.094 26.355Z" fill="#E5E5E5"/>
</g>
<defs>
<filter id="filter0_d_29_38" x="0.730003" y="0.700012" width="222.914" height="36.455" filterUnits="userSpaceOnUse" color-interpolation-filters="sRGB">
<feFlood flood-opacity="0" result="BackgroundImageFix"/>
<feColorMatrix in="SourceAlpha" type="matrix" values="0 0 0 0 0 0 0 0 0 0 0 0 0 0 0 0 0 0 127 0" result="hardAlpha"/>
<feOffset dy="4"/>
<feGaussianBlur stdDeviation="2"/>
<feComposite in2="hardAlpha" operator="out"/>
<feColorMatrix type="matrix" values="0 0 0 0 0 0 0 0 0 0 0 0 0 0 0 0 0 0 0.25 0"/>
<feBlend mode="normal" in2="BackgroundImageFix" result="effect1_dropShadow_29_38"/>
<feBlend mode="normal" in="SourceGraphic" in2="effect1_dropShadow_29_38" result="shape"/>
</filter>
</defs>
</svg>
