<svg width="112" height="42" viewBox="0 0 112 42" fill="none" xmlns="http://www.w3.org/2000/svg">
<g filter="url(#filter0_d_36_2)">
<path d="M4.73 0.499998V25H18.59V21.29H8.86V0.499998H4.73ZM20.0406 16.95C20.0406 18.5833 20.4139 20.0417 21.1606 21.325C21.9306 22.585 22.9689 23.5767 24.2756 24.3C25.5823 25 27.0639 25.35 28.7206 25.35C30.3773 25.35 31.8473 25 33.1306 24.3C34.4373 23.5767 35.4756 22.585 36.2456 21.325C37.0156 20.0417 37.4006 18.5833 37.4006 16.95C37.4006 15.2933 37.0156 13.835 36.2456 12.575C35.4756 11.315 34.4373 10.335 33.1306 9.635C31.8473 8.91167 30.3773 8.55 28.7206 8.55C27.0639 8.55 25.5823 8.91167 24.2756 9.635C22.9689 10.335 21.9306 11.315 21.1606 12.575C20.4139 13.835 20.0406 15.2933 20.0406 16.95ZM23.9256 16.95C23.9256 15.9467 24.1356 15.06 24.5556 14.29C24.9756 13.52 25.5473 12.925 26.2706 12.505C26.9939 12.085 27.8106 11.875 28.7206 11.875C29.6073 11.875 30.4123 12.085 31.1356 12.505C31.8823 12.925 32.4656 13.52 32.8856 14.29C33.3056 15.06 33.5156 15.9467 33.5156 16.95C33.5156 17.9533 33.3056 18.84 32.8856 19.61C32.4656 20.3567 31.8823 20.9517 31.1356 21.395C30.4123 21.815 29.6073 22.025 28.7206 22.025C27.8106 22.025 26.9939 21.815 26.2706 21.395C25.5473 20.9517 24.9756 20.3567 24.5556 19.61C24.1356 18.84 23.9256 17.9533 23.9256 16.95ZM40.0773 26.085C40.1239 27.485 40.4739 28.7217 41.1273 29.795C41.8039 30.8683 42.7606 31.6967 43.9973 32.28C45.2339 32.8867 46.7273 33.19 48.4773 33.19C49.9473 33.19 51.3123 32.875 52.5723 32.245C53.8323 31.6383 54.8473 30.705 55.6173 29.445C56.4106 28.185 56.8073 26.5867 56.8073 24.65V8.9H53.0973V24.65C53.0973 25.8633 52.8639 26.855 52.3973 27.625C51.9539 28.395 51.3706 28.9667 50.6473 29.34C49.9239 29.7133 49.1656 29.9 48.3723 29.9C47.4856 29.9 46.7039 29.7367 46.0273 29.41C45.3506 29.0833 44.8139 28.6283 44.4173 28.045C44.0439 27.4617 43.8456 26.8083 43.8223 26.085H40.0773ZM39.7623 16.88C39.7623 18.63 40.1239 20.1233 40.8473 21.36C41.5706 22.5967 42.5273 23.5417 43.7173 24.195C44.9306 24.8483 46.2256 25.175 47.6023 25.175C48.9556 25.175 50.1339 24.8483 51.1373 24.195C52.1639 23.5183 52.9689 22.5617 53.5523 21.325C54.1589 20.0883 54.4623 18.6067 54.4623 16.88C54.4623 15.13 54.1589 13.6367 53.5523 12.4C52.9689 11.1633 52.1639 10.2183 51.1373 9.565C50.1339 8.88833 48.9556 8.55 47.6023 8.55C46.2256 8.55 44.9306 8.87667 43.7173 9.53C42.5273 10.1833 41.5706 11.1283 40.8473 12.365C40.1239 13.5783 39.7623 15.0833 39.7623 16.88ZM43.6823 16.88C43.6823 15.7833 43.9039 14.8617 44.3473 14.115C44.7906 13.3683 45.3739 12.8083 46.0973 12.435C46.8439 12.0383 47.6489 11.84 48.5123 11.84C49.0489 11.84 49.5856 11.945 50.1223 12.155C50.6823 12.365 51.1839 12.6917 51.6273 13.135C52.0706 13.555 52.4206 14.08 52.6773 14.71C52.9573 15.3167 53.0973 16.04 53.0973 16.88C53.0973 17.9533 52.8639 18.875 52.3973 19.645C51.9539 20.3917 51.3706 20.9517 50.6473 21.325C49.9473 21.6983 49.2356 21.885 48.5123 21.885C47.6489 21.885 46.8439 21.6983 46.0973 21.325C45.3739 20.9283 44.7906 20.3567 44.3473 19.61C43.9039 18.8633 43.6823 17.9533 43.6823 16.88ZM60.2701 16.95C60.2701 18.5833 60.6434 20.0417 61.3901 21.325C62.1601 22.585 63.1984 23.5767 64.5051 24.3C65.8117 25 67.2934 25.35 68.9501 25.35C70.6067 25.35 72.0767 25 73.3601 24.3C74.6667 23.5767 75.7051 22.585 76.4751 21.325C77.2451 20.0417 77.6301 18.5833 77.6301 16.95C77.6301 15.2933 77.2451 13.835 76.4751 12.575C75.7051 11.315 74.6667 10.335 73.3601 9.635C72.0767 8.91167 70.6067 8.55 68.9501 8.55C67.2934 8.55 65.8117 8.91167 64.5051 9.635C63.1984 10.335 62.1601 11.315 61.3901 12.575C60.6434 13.835 60.2701 15.2933 60.2701 16.95ZM64.1551 16.95C64.1551 15.9467 64.3651 15.06 64.7851 14.29C65.2051 13.52 65.7767 12.925 66.5001 12.505C67.2234 12.085 68.0401 11.875 68.9501 11.875C69.8367 11.875 70.6417 12.085 71.3651 12.505C72.1117 12.925 72.6951 13.52 73.1151 14.29C73.5351 15.06 73.7451 15.9467 73.7451 16.95C73.7451 17.9533 73.5351 18.84 73.1151 19.61C72.6951 20.3567 72.1117 20.9517 71.3651 21.395C70.6417 21.815 69.8367 22.025 68.9501 22.025C68.0401 22.025 67.2234 21.815 66.5001 21.395C65.7767 20.9517 65.2051 20.3567 64.7851 19.61C64.3651 18.84 64.1551 17.9533 64.1551 16.95ZM85.1018 18.7V8.9H81.2168V19.12C81.2168 21.0333 81.6951 22.55 82.6518 23.67C83.6318 24.79 85.0201 25.35 86.8168 25.35C87.9368 25.35 88.8934 25.1167 89.6868 24.65C90.5034 24.16 91.1684 23.4483 91.6818 22.515V25H95.4618V8.9H91.6818V18.7C91.6818 19.4233 91.5301 20.065 91.2268 20.625C90.9234 21.1617 90.5034 21.5817 89.9668 21.885C89.4301 22.165 88.8001 22.305 88.0768 22.305C87.0734 22.305 86.3268 21.99 85.8368 21.36C85.3468 20.73 85.1018 19.8433 85.1018 18.7ZM98.049 8.9V12.225H107.184V8.9H98.049ZM100.744 3.3V25H104.489V3.3H100.744Z" fill="#E5E5E5"/>
</g>
<defs>
<filter id="filter0_d_36_2" x="0.72998" y="0.5" width="110.454" height="40.69" filterUnits="userSpaceOnUse" color-interpolation-filters="sRGB">
<feFlood flood-opacity="0" result="BackgroundImageFix"/>
<feColorMatrix in="SourceAlpha" type="matrix" values="0 0 0 0 0 0 0 0 0 0 0 0 0 0 0 0 0 0 127 0" result="hardAlpha"/>
<feOffset dy="4"/>
<feGaussianBlur stdDeviation="2"/>
<feComposite in2="hardAlpha" operator="out"/>
<feColorMatrix type="matrix" values="0 0 0 0 0 0 0 0 0 0 0 0 0 0 0 0 0 0 0.25 0"/>
<feBlend mode="normal" in2="BackgroundImageFix" result="effect1_dropShadow_36_2"/>
<feBlend mode="normal" in="SourceGraphic" in2="effect1_dropShadow_36_2" result="shape"/>
</filter>
</defs>
</svg>
